<svg id="Layer_1" data-name="Layer 1" xmlns="http://www.w3.org/2000/svg" viewBox="0 0 241.95 274.94"><defs><style>.cls-1{fill:#f7941d;stroke:#231f20;stroke-miterlimit:10;}.cls-2{font-size:41.1px;fill:#8b5e3c;font-family:Rockwell-ExtraBold, Rockwell Extra Bold;font-weight:800;}</style></defs><path class="cls-1" d="M451.22,188.17l-8.58,8.58a2.29,2.29,0,0,0-.67,1.62V357.82a2.28,2.28,0,0,1-2.29,2.29H417.94a2.29,2.29,0,0,1-2.29-2.29V229.27a2.29,2.29,0,0,0-3.91-1.62l-60.09,60.1a2.3,2.3,0,0,0,0,3.24l48.89,48.89a2.28,2.28,0,0,1,0,3.24l-15.36,15.37a2.28,2.28,0,0,1-3.24,0L333,309.59a2.3,2.3,0,0,0-3.24,0l-48.9,48.9a2.28,2.28,0,0,1-3.24,0l-15.37-15.37a2.3,2.3,0,0,1,0-3.24l48.9-48.9a2.28,2.28,0,0,0,0-3.24l-60.81-60.8a2.29,2.29,0,0,0-3.91,1.62V360.72a2.28,2.28,0,0,1-2.29,2.29H222.44a2.29,2.29,0,0,1-2.29-2.29V197.66a2.29,2.29,0,0,0-.67-1.62l-7.87-7.87a2.3,2.3,0,0,1,0-3.24L227,169.56a2.3,2.3,0,0,1,3.24,0l11.3,11.3,4.95,4.95,83.33,83.33a2.28,2.28,0,0,0,3.24,0l82.61-82.62L424.2,178l8.41-8.41a2.3,2.3,0,0,1,3.24,0l15.37,15.37A2.28,2.28,0,0,1,451.22,188.17Z" transform="translate(-210.44 -133.53)"/><path class="cls-1" d="M362.45,199.51h11.24a4.91,4.91,0,0,1,4.69,6.32c-6.51,21.5-24.74,37-46.22,37-26.93,0-48.76-24.35-48.76-54.39S305.23,134,332.16,134c22.59,0,41.59,17.12,47.13,40.37a4.9,4.9,0,0,1-4.75,6.08H363.66a4.87,4.87,0,0,1-4.62-3.29c-4.08-12.13-14.57-20.77-26.88-20.77-15.84,0-28.69,14.33-28.69,32s12.85,32,28.69,32c11.36,0,21.17-7.34,25.82-18A4.88,4.88,0,0,1,362.45,199.51Z" transform="translate(-210.44 -133.53)"/><text class="cls-2" transform="translate(8.35 263.84) scale(1.05 1)">MugCLix</text></svg>